# xmcd CD database file
#
# Track frame offsets:
#	150
#	19950
#	39107
#	52380
#	67445
#	82090
#	91477
#	105967
#	123635
#	139212
#	164547
#	179017
#
# Disc length: 2804 seconds
#
# Revision: 1
# Processed by: cddbd v1.5.2PL0 Copyright (c) Steve Scherf et al.
# Submitted via: CDex 1.51
#
DISCID=b50af20c
DTITLE=Oscar Klein and Jerry Ricks - Blues Panorama
DYEAR=1986
DGENRE=Blues
TTITLE0=China Blues
TTITLE1=Goin' To St. Louis
TTITLE2=Schwarzwald Boogie
TTITLE3=Blues For Louis Armstrong
TTITLE4=Cornet Gumbo
TTITLE5=The Hambone
TTITLE6=Down In Luck
TTITLE7=Crossroads
TTITLE8=Tommy Ladnier
TTITLE9=Oh, Babe, Ain't No Lie - Freight Train
TTITLE10=Struttin' Down Canal Street
TTITLE11=Ok, Jr!
EXTD=YEAR: 1986
EXTT0=
EXTT1=
EXTT2=
EXTT3=
EXTT4=
EXTT5=
EXTT6=
EXTT7=
EXTT8=
EXTT9=
EXTT10=
EXTT11=
PLAYORDER=
